<?xml version="1.0" encoding="utf-8"?>
<svg xmlns="http://www.w3.org/2000/svg" viewBox="0 0 37 37">
	<path fill="#e64a19" d="M1.916 26.413l14.476-14.487L18.5 9.818l2.108 2.108 10.686 10.686-.016.054-.21.62-.24.607-.269.591-.296.577-.269.468L18.5 14.034 3.454 29.092c-.58-.853-1.117-1.732-1.538-2.68z"/>
	<path fill="#474747" d="M18.5.002c10.189 0 18.498 8.31 18.498 18.498S28.69 36.998 18.5 36.998c-5.565 0-10.569-2.481-13.964-6.392l.653-.656.475-.475.475-.476.476-.475.02-.02c2.852 3.378 7.114 5.53 11.865 5.53 8.556 0 15.535-6.977 15.535-15.534S27.056 2.965 18.5 2.965C9.943 2.965 2.965 9.943 2.965 18.5c0 1.152.128 2.275.368 3.358l-1.03 1.033-1.376 1.376A18.378 18.378 0 01.002 18.5C.002 8.311 8.31.002 18.5.002z"/>
</svg>
